<svg xmlns="http://www.w3.org/2000/svg" viewBox="0 0 512 512">
    <path d="M479.718,461.956C479.718,470.696,472.670,478.026,463.648,478.026L271.930,478.026C263.189,478.026,255.859,470.978,255.859,461.956L255.859,418.256C256.705,364.687,262.344,313.374,274.185,289.974C281.233,275.877,293.075,268.264,306.608,264.317C332.264,256.705,376.811,261.780,395.982,260.934C395.982,260.934,453.498,263.189,453.498,230.767C453.498,198.344,427.841,206.520,427.841,206.520C399.648,207.366,377.938,205.392,364.123,199.753C340.722,190.449,339.877,173.815,339.877,168.176C338.749,103.048,242.608,95.154,158.026,111.507C65.551,128.987,159.154,261.780,159.154,438.837L159.154,462.520C159.154,471.260,151.824,478.308,143.084,478.308L48.070,478.308C39.330,478.308,32.000,471.260,32.000,462.238L32.000,56.247C32.000,47.507,39.048,40.176,48.070,40.176L137.445,40.176C146.185,40.176,153.515,47.225,153.515,56.247C153.515,69.498,168.176,76.546,178.890,68.934C211.031,45.815,252.194,33.692,298.432,33.692C401.621,33.692,480.000,94.026,480.000,227.383L480.000,461.956ZM308.300,179.736C308.300,160.846,293.075,145.621,274.185,145.621C255.295,145.621,240.070,160.846,240.070,179.736C240.070,198.626,255.295,213.850,274.185,213.850C293.075,213.850,308.300,198.626,308.300,179.736ZZ" />
</svg>