<svg xmlns="http://www.w3.org/2000/svg" version="1.1" xmlns:xlink="http://www.w3.org/1999/xlink" xmlns:svgjs="http://svgjs.dev/svgjs" width="48" height="48"><svg width="48" xmlns="http://www.w3.org/2000/svg" height="48" fill="none"><defs><clipPath id="SvgjsClipPath1054" class="frame-clip frame-clip-def"><rect rx="0" ry="0" width="48" height="48" transform="matrix(1.000000, 0.000000, 0.000000, 1.000000, 0.000000, 0.000000)"></rect></clipPath></defs><g class="frame-container-wrapper"><g class="frame-container-blur"><g clip-path="url(#a)" class="frame-container-shadows"><g class="fills"><rect width="48" height="48" class="frame-background" transform="matrix(1.000000, 0.000000, 0.000000, 1.000000, 0.000000, 0.000000)" style="fill: rgb(255, 255, 255); fill-opacity: 0;" ry="0" rx="0" fill="none"></rect></g><g class="frame-children"><path d="M24.003,40.000C17.957,40.000,10.420,34.915,10.006,28.894C9.975,28.438,10.064,27.716,10.205,27.282C13.244,17.916,14.169,8.000,24.003,8.000C33.837,8.000,34.896,18.506,37.812,27.284C37.956,27.717,38.034,28.437,37.986,28.891C37.249,35.860,30.049,40.000,24.003,40.000ZZ" fill-rule="evenodd" style="fill: rgb(31, 30, 38); fill-opacity: 1;" class="fills"></path><path d="M23.965,40.000C16.168,40.000,15.601,34.646,15.601,32.694C15.601,30.742,17.908,27.187,17.908,27.187C17.908,27.187,14.099,22.375,16.062,20.401C17.566,18.889,20.875,22.140,23.957,22.140C23.971,22.140,23.986,22.140,24.000,22.140L24.022,22.140C24.029,22.140,24.036,22.140,24.044,22.140C27.126,22.140,30.434,18.889,31.938,20.401C33.901,22.375,30.092,27.187,30.092,27.187C30.092,27.187,32.399,30.742,32.399,32.694C32.399,34.646,31.832,40.000,23.965,40.000ZL23.965,40.000ZL23.965,40.000ZZ" fill-rule="evenodd" style="fill: rgb(112, 111, 115); fill-opacity: 1;" class="fills"></path></g></g></g></g></svg><style>@media (prefers-color-scheme: light) { :root { filter: none; } }
@media (prefers-color-scheme: dark) { :root { filter: none; } }
</style></svg>