<svg xmlns="http://www.w3.org/2000/svg" class="ionicon s-ion-icon" viewBox="0 0 512 512">
  <path d="M479.718 461.956c0 8.74-7.048 16.07-16.07 16.07H271.93c-8.741 0-16.071-7.048-16.071-16.07v-43.7c.846-53.569 6.485-104.882 18.326-128.282 7.048-14.097 18.89-21.71 32.423-25.657 25.656-7.612 70.203-2.537 89.374-3.383 0 0 57.516 2.255 57.516-30.167 0-32.423-25.657-24.247-25.657-24.247-28.193.846-49.903-1.128-63.718-6.767-23.401-9.304-24.246-25.938-24.246-31.577-1.128-65.128-97.269-73.022-181.851-56.669-92.475 17.48 1.128 150.273 1.128 327.33v23.683c0 8.74-7.33 15.788-16.07 15.788H48.07c-8.74 0-16.07-7.048-16.07-16.07V56.247c0-8.74 7.048-16.071 16.07-16.071h89.375c8.74 0 16.07 7.049 16.07 16.071 0 13.251 14.661 20.299 25.375 12.687 32.141-23.119 73.304-35.242 119.542-35.242C401.621 33.692 480 94.026 480 227.383v234.573ZM308.3 179.736c0-18.89-15.225-34.115-34.115-34.115s-34.115 15.225-34.115 34.115 15.225 34.114 34.115 34.114 34.115-15.224 34.115-34.114Z"/>
</svg>
